<?xml version="1.0" encoding="UTF-8"?>
<svg width="224px" height="67px" viewBox="0 0 224 67" version="1.1" xmlns="http://www.w3.org/2000/svg" xmlns:xlink="http://www.w3.org/1999/xlink">
    <g id="Page-1" stroke="none" stroke-width="1" fill="none" fill-rule="evenodd">
        <g id="BBVA_RGB_DDB" transform="translate(-309.000000, -264.000000)" fill="#ffffff">
            <g id="BBVA" transform="translate(309.727600, 264.307650)">
                <path d="M160.2206,9.03165 L141.0896,45.44865 C140.6756,46.23865 139.4946,46.23865 139.0806,45.45165 L119.9346,9.03165 C119.7416,8.66665 119.3636,8.44065 118.9516,8.44065 L109.6996,8.44065 C109.0726,8.44065 108.6716,9.11065 108.9666,9.66365 L139.1066,66.07565 C139.5256,66.85465 140.6426,66.85465 141.0616,66.07565 L171.2016,9.66365 C171.4986,9.11065 171.0976,8.44065 170.4706,8.44065 L161.2006,8.44065 C160.7886,8.44065 160.4136,8.66865 160.2206,9.03165" id="Fill-1"/>
                <path d="M171.081,57.62825 L190.212,21.21125 C190.626,20.42125 191.807,20.42125 192.221,21.20825 L211.367,57.62825 C211.56,57.99325 211.938,58.21925 212.35,58.21925 L221.602,58.21925 C222.229,58.21925 222.63,57.54925 222.336,56.99525 L192.195,0.58425 C191.776,-0.19475 190.659,-0.19475 190.24,0.58425 L160.098,56.99525 C159.803,57.54925 160.204,58.21925 160.831,58.21925 L170.101,58.21925 C170.513,58.21925 170.888,57.99025 171.081,57.62825" id="Fill-3"/>
                <path d="M40.35,35.30505 C44.341,33.30905 46.837,28.98305 46.837,23.66105 C46.837,14.59405 39.768,8.44005 29.788,8.44005 L1.11,8.44005 C0.498,8.44005 -2.84217094e-14,8.93505 -2.84217094e-14,9.54705 L-2.84217094e-14,65.55205 C-2.84217094e-14,66.16305 0.498,66.66105 1.11,66.66105 L28.529,66.66105 C42.252,66.66105 49.488,60.75505 49.488,49.19605 C49.488,37.90805 40.35,35.30505 40.35,35.30505 M10.74,16.85905 L27.746,16.85905 C34.015,16.85905 37.209,19.54005 37.209,24.48105 C37.209,29.44505 34.028,32.10605 27.746,32.10605 L10.74,32.10605 C10.128,32.10605 9.633,31.61105 9.633,30.99605 L9.633,17.96605 C9.633,17.35405 10.128,16.85905 10.74,16.85905 M27.977,58.21905 L10.73,58.22205 C10.118,58.22205 9.621,57.72405 9.621,57.11305 L9.621,41.64705 C9.621,41.03505 10.118,40.53705 10.73,40.53705 L27.977,40.53705 C36.196,40.53705 39.868,42.86805 39.868,49.37805 C39.868,55.88805 36.277,58.21905 27.977,58.21905" id="Fill-5"/>
                <path d="M99.1782,35.30505 C103.1692,33.30905 105.6652,28.98305 105.6652,23.66105 C105.6652,14.59405 98.5962,8.44005 88.6162,8.44005 L59.9382,8.44005 C59.3262,8.44005 58.8282,8.93505 58.8282,9.54705 L58.8282,65.55205 C58.8282,66.16305 59.3262,66.66105 59.9382,66.66105 L87.3572,66.66105 C101.0802,66.66105 108.3162,60.75505 108.3162,49.19605 C108.3162,37.90805 99.1782,35.30505 99.1782,35.30505 M69.5682,16.85905 L86.5742,16.85905 C92.8442,16.85905 96.0372,19.54005 96.0372,24.48105 C96.0372,29.44505 92.8562,32.10605 86.5742,32.10605 L69.5682,32.10605 C68.9562,32.10605 68.4592,31.61105 68.4592,30.99605 L68.4592,17.96605 C68.4592,17.35405 68.9562,16.85905 69.5682,16.85905 M86.8052,58.21905 L69.5582,58.22205 C68.9472,58.22205 68.4492,57.72405 68.4492,57.11305 L68.4492,41.64705 C68.4492,41.03505 68.9472,40.53705 69.5582,40.53705 L86.8052,40.53705 C95.0242,40.53705 98.6962,42.86805 98.6962,49.37805 C98.6962,55.88805 95.1062,58.21905 86.8052,58.21905" id="Fill-7"/>
            </g>
        </g>
    </g>
</svg>